<svg width="87" height="124" viewBox="0 0 87 124" fill="none" xmlns="http://www.w3.org/2000/svg">
<g clip-path="url(#clip0_600_710)">
<path fill-rule="evenodd" clip-rule="evenodd" d="M6.75148 32.5256C9.1161 31.3565 11.6044 29.8027 13.5233 27.5532C15.8023 24.8814 16.7291 21.4403 17.3515 17.8181C18.1506 13.1645 18.4699 8.20723 19.4389 3.54608C19.7976 1.81512 20.4881 1.16082 20.7843 0.870439C21.5331 0.136949 22.29 -0.0591121 23.0021 0.0144254C23.846 0.0992764 25.0053 0.542356 25.7677 2.50524C25.8764 2.78619 26.0177 3.21424 26.1128 3.80066C26.1821 4.23057 26.227 5.57496 26.3003 6.12932C26.4838 7.49447 26.6374 8.85968 26.7814 10.2324C27.2611 14.8011 27.537 18.6816 29.0523 22.8789C31.1084 28.5771 33.1687 32.0635 35.9627 33.6078C38.6644 35.1012 41.8946 34.8203 46.0218 33.6494C46.4146 33.5174 46.8032 33.4042 47.1878 33.3118C49.0074 32.8706 50.7469 34.528 51.1044 37.0434C51.4618 39.5569 50.3053 42.0062 48.502 42.5587C48.1255 42.6737 47.7545 42.7831 47.3876 42.883C41.8103 44.7987 35.3538 51.6359 31.6017 57.6226C30.4452 59.4686 28.752 64.6293 27.0247 67.9216C25.75 70.3502 24.3176 71.9511 23.1149 72.5167C22.309 72.8976 21.6296 72.8392 21.0683 72.6469C20.2529 72.3678 19.5762 71.7549 19.0571 70.7801C18.7744 70.2465 18.5121 69.5318 18.387 68.6192C18.3272 68.1799 18.3205 67.0637 18.3218 66.5584C17.9699 64.8783 17.5391 63.2378 17.2251 61.5427C16.4763 57.4981 15.0073 54.9375 13.2623 51.5548C11.6302 48.3889 9.8772 46.3996 7.30738 44.812C6.97307 44.6988 4.2755 43.7824 3.32286 43.2563C1.93127 42.4851 1.26805 41.1935 1.02751 40.4977C0.618464 39.3173 0.576372 38.286 0.657911 37.4262C0.77886 36.1572 1.18927 35.0711 1.91768 34.1943C2.36886 33.6494 3.04292 33.1195 3.94528 32.8611C4.64243 32.6594 6.49192 32.5425 6.75148 32.5256ZM22.5768 25.9335C22.7018 26.3201 22.835 26.7085 22.9763 27.1007C25.9878 35.4463 29.3553 40.1056 33.4486 42.3664L33.5858 42.4399C30.8475 45.2607 28.3687 48.4134 26.4743 51.436C25.6942 52.6805 24.6614 55.2656 23.5457 57.9167C22.5319 53.3442 20.874 50.1123 18.7893 46.0678C17.1966 42.9811 15.5278 40.6581 13.4771 38.765C15.0685 37.6317 16.5864 36.3043 17.9087 34.7543C20.1102 32.173 21.5657 29.1824 22.5768 25.9335Z" fill="#FFF9C8"/>
</g>
<g clip-path="url(#clip1_600_710)">
<path fill-rule="evenodd" clip-rule="evenodd" d="M55.6741 95.4163C57.3111 94.6106 59.0338 93.5397 60.3623 91.9894C61.9401 90.148 62.5817 87.7764 63.0126 85.28C63.5658 82.0728 63.7869 78.6563 64.4577 75.4439C64.7061 74.251 65.184 73.8 65.3891 73.5999C65.9075 73.0944 66.4315 72.9593 66.9245 73.0099C67.5088 73.0684 68.3114 73.3738 68.8392 74.7266C68.9144 74.9202 69.0122 75.2152 69.0781 75.6194C69.1261 75.9157 69.1571 76.8422 69.2079 77.2243C69.3349 78.1651 69.4413 79.106 69.541 80.052C69.8731 83.2008 70.0641 85.8752 71.1131 88.7679C72.5366 92.695 73.9629 95.0978 75.8973 96.1622C77.7676 97.1914 80.004 96.9978 82.8613 96.1908C83.1332 96.0998 83.4022 96.0218 83.6685 95.9581C84.9282 95.6541 86.1325 96.7963 86.3799 98.5299C86.6274 100.262 85.8268 101.95 84.5783 102.331C84.3177 102.41 84.0608 102.486 83.8068 102.554C79.9456 103.875 75.4757 108.587 72.8781 112.713C72.0775 113.985 70.9052 117.542 69.7094 119.811C68.8269 121.485 67.8353 122.588 67.0026 122.978C66.4447 123.24 65.9743 123.2 65.5858 123.067C65.0213 122.875 64.5528 122.453 64.1934 121.781C63.9977 121.413 63.816 120.921 63.7295 120.292C63.6881 119.989 63.6834 119.22 63.6844 118.871C63.4407 117.713 63.1424 116.583 62.9251 115.415C62.4067 112.627 61.3897 110.862 60.1816 108.531C59.0517 106.349 57.8381 104.978 56.059 103.884C55.8275 103.806 53.96 103.174 53.3004 102.812C52.337 102.28 51.8779 101.39 51.7114 100.911C51.4282 100.097 51.399 99.3863 51.4555 98.7937C51.5392 97.9191 51.8233 97.1706 52.3276 96.5663C52.64 96.1908 53.1066 95.8256 53.7313 95.6475C54.214 95.5085 55.4944 95.428 55.6741 95.4163ZM66.6301 90.8731C66.7166 91.1395 66.8088 91.4072 66.9067 91.6775C68.9916 97.4292 71.3229 100.64 74.1567 102.198L74.2517 102.249C72.356 104.193 70.6399 106.366 69.3283 108.449C68.7883 109.307 68.0733 111.088 67.3009 112.916C66.599 109.764 65.4512 107.537 64.008 104.749C62.9053 102.622 61.75 101.021 60.3303 99.7164C61.432 98.9354 62.4829 98.0205 63.3983 96.9523C64.9225 95.1733 65.9301 93.1122 66.6301 90.8731Z" fill="#FFF9C8"/>
</g>
<defs>
<clipPath id="clip0_600_710">
<rect width="52" height="74" fill="white"/>
</clipPath>
<clipPath id="clip1_600_710">
<rect width="36" height="51" fill="white" transform="translate(51 73)"/>
</clipPath>
</defs>
</svg>
