<svg width="336" height="322" viewBox="0 0 336 322" fill="none" xmlns="http://www.w3.org/2000/svg">
<path fill-rule="evenodd" clip-rule="evenodd" d="M190.348 266.337C166.887 309.962 120.022 327.698 76.4941 303.138C75.045 302.32 73.2075 302.832 72.3897 304.263C71.5719 305.72 72.0831 307.56 73.5321 308.377C120.188 334.726 170.506 315.942 195.654 269.199C196.441 267.743 195.891 265.902 194.427 265.11C192.963 264.343 191.135 264.88 190.348 266.337Z" fill="#FFF9C8"/>
<path d="M113.122 284.428C117.968 284.428 121.897 280.5 121.897 275.654C121.897 270.807 117.968 266.879 113.122 266.879C108.276 266.879 104.347 270.807 104.347 275.654C104.347 280.5 108.276 284.428 113.122 284.428Z" fill="#FFF9C8"/>
<path d="M149.451 275.094C154.203 275.094 158.054 271.242 158.054 266.491C158.054 261.739 154.203 257.887 149.451 257.887C144.699 257.887 140.848 261.739 140.848 266.491C140.848 271.242 144.699 275.094 149.451 275.094Z" fill="#FFF9C8"/>
<path fill-rule="evenodd" clip-rule="evenodd" d="M105.706 34.5423C100.136 29.964 95.6234 24.5119 92.2321 18.1597C91.5538 16.8945 89.9756 16.4118 88.6973 17.0901C87.4321 17.7684 86.9494 19.3467 87.6277 20.6249C91.3581 27.5771 96.2886 33.551 102.393 38.5728C103.502 39.4858 105.158 39.3293 106.071 38.2206C106.984 37.0988 106.815 35.4553 105.706 34.5423Z" fill="#FFF9C8"/>
<path fill-rule="evenodd" clip-rule="evenodd" d="M102.736 16.7119C103.023 21.9815 103.284 27.251 103.61 32.5206C103.701 33.9554 104.94 35.051 106.375 34.9597C107.81 34.8684 108.905 33.6293 108.814 32.1945C108.488 26.938 108.227 21.6815 107.94 16.4119C107.862 14.9811 106.623 13.8789 105.188 13.9597C103.753 14.0406 102.644 15.2732 102.736 16.7119Z" fill="#FFF9C8"/>
<path fill-rule="evenodd" clip-rule="evenodd" d="M122.1 17.7817C118.761 22.8165 114.978 27.4599 111.17 32.1555C110.257 33.2773 110.426 34.9208 111.548 35.8208C112.67 36.7339 114.313 36.5643 115.213 35.4425C119.126 30.6295 123.013 25.8425 126.457 20.6642C127.252 19.4642 126.913 17.8469 125.713 17.0512C124.526 16.2556 122.896 16.5817 122.1 17.7817Z" fill="#FFF9C8"/>
<path fill-rule="evenodd" clip-rule="evenodd" d="M135.035 36.4989C125.983 36.9032 116.37 36.9163 107.317 36.3424C105.883 36.2641 104.643 37.3467 104.552 38.7945C104.461 40.2293 105.557 41.4685 106.991 41.5598C116.226 42.1337 126.035 42.1206 135.27 41.7163C136.704 41.6511 137.826 40.425 137.761 38.9902C137.696 37.5554 136.47 36.4337 135.035 36.4989Z" fill="#FFF9C8"/>
<path fill-rule="evenodd" clip-rule="evenodd" d="M102.386 38.1554C107.969 44.9901 113.747 51.6946 118.925 58.8424C119.773 60.0033 121.403 60.264 122.577 59.4162C123.738 58.5684 123.999 56.9379 123.151 55.777C117.908 48.5509 112.064 41.7684 106.416 34.8553C105.503 33.7466 103.86 33.5771 102.751 34.4901C101.629 35.4032 101.473 37.0467 102.386 38.1554Z" fill="#FFF9C8"/>
<path fill-rule="evenodd" clip-rule="evenodd" d="M104.077 40.1383C105.537 47.2601 105.942 54.0688 106.046 61.2818C106.059 62.7166 107.246 63.8644 108.681 63.8514C110.129 63.8253 111.277 62.6513 111.251 61.2035C111.146 53.6513 110.716 46.5427 109.19 39.0818C108.89 37.6731 107.52 36.76 106.098 37.06C104.69 37.347 103.777 38.7296 104.077 40.1383Z" fill="#FFF9C8"/>
<path fill-rule="evenodd" clip-rule="evenodd" d="M104.312 39.5648C100.086 48.017 97.9078 57.4083 93.3817 65.6779C92.6904 66.93 93.1598 68.5213 94.4251 69.2126C95.6903 69.9039 97.2686 69.4343 97.9599 68.1821C102.512 59.8604 104.716 50.4169 108.982 41.8996C109.621 40.6083 109.099 39.043 107.821 38.3909C106.529 37.7517 104.964 38.2735 104.312 39.5648Z" fill="#FFF9C8"/>
<path fill-rule="evenodd" clip-rule="evenodd" d="M106.638 37.6466C98.2249 39.1335 89.8249 39.8118 81.3597 40.8161C79.9249 40.9857 78.9075 42.277 79.0771 43.7118C79.2466 45.1466 80.538 46.164 81.9728 45.9944C90.5293 44.9901 99.0337 44.2857 107.551 42.7857C108.96 42.5248 109.912 41.1683 109.664 39.7596C109.403 38.3379 108.06 37.3857 106.638 37.6466Z" fill="#FFF9C8"/>
<path fill-rule="evenodd" clip-rule="evenodd" d="M112.492 33.6822C110.757 33.6039 109.114 33.4865 107.418 33.2387C105.984 33.03 104.666 34.0213 104.457 35.443C104.249 36.8648 105.24 38.1952 106.662 38.4039C108.54 38.6778 110.353 38.8083 112.257 38.8865C113.692 38.9518 114.918 37.843 114.97 36.3952C115.036 34.9604 113.927 33.7474 112.492 33.6822Z" fill="#FFF9C8"/>
<mask id="mask0_598_670" style="mask-type:luminance" maskUnits="userSpaceOnUse" x="0" y="172" width="52" height="53">
<path d="M52 172H0V225H52V172Z" fill="white"/>
</mask>
<g mask="url(#mask0_598_670)">
<path fill-rule="evenodd" clip-rule="evenodd" d="M6.75148 195.295C9.11609 194.458 11.6045 193.345 13.5233 191.734C15.8023 189.82 16.7292 187.356 17.3516 184.762C18.1507 181.429 18.47 177.878 19.4389 174.54C19.7977 173.3 20.4881 172.831 20.7844 172.623C21.5332 172.098 22.2901 171.958 23.0022 172.01C23.8461 172.071 25.0053 172.388 25.7677 173.794C25.8764 173.996 26.0177 174.302 26.1128 174.722C26.1822 175.03 26.227 175.993 26.3004 176.39C26.4838 177.368 26.6374 178.345 26.7815 179.329C27.2612 182.601 27.5371 185.38 29.0523 188.386C31.1085 192.467 33.1687 194.964 35.9628 196.07C38.6644 197.14 41.8946 196.939 46.0219 196.1C46.4146 196.006 46.8032 195.925 47.1878 195.858C49.0075 195.542 50.747 196.73 51.1044 198.531C51.4618 200.331 50.3054 202.086 48.502 202.481C48.1256 202.564 47.7546 202.642 47.3876 202.713C41.8104 204.086 35.3539 208.982 31.6017 213.27C30.4453 214.592 28.752 218.289 27.0247 220.647C25.75 222.386 24.3176 223.533 23.115 223.938C22.3091 224.21 21.6296 224.169 21.0684 224.031C20.253 223.831 19.5762 223.392 19.0571 222.694C18.7744 222.312 18.5121 221.8 18.3871 221.146C18.3273 220.832 18.3205 220.032 18.3219 219.67C17.9699 218.467 17.5391 217.292 17.2252 216.078C16.4764 213.181 15.0073 211.347 13.2624 208.924C11.6303 206.657 9.8772 205.232 7.30738 204.095C6.97307 204.014 4.27549 203.358 3.32285 202.981C1.93126 202.429 1.26805 201.503 1.02751 201.005C0.618463 200.16 0.576372 199.421 0.657911 198.805C0.778859 197.896 1.18927 197.118 1.91768 196.491C2.36886 196.1 3.04292 195.721 3.94527 195.536C4.64243 195.391 6.49191 195.307 6.75148 195.295ZM22.5768 190.574C22.7018 190.851 22.835 191.129 22.9764 191.41C25.9878 197.387 29.3554 200.724 33.4486 202.343L33.5859 202.396C30.8475 204.416 28.3687 206.674 26.4743 208.839C25.6943 209.731 24.6615 211.582 23.5458 213.481C22.532 210.206 20.874 207.891 18.7894 204.994C17.1966 202.784 15.5278 201.12 13.4771 199.764C15.0685 198.952 16.5865 198.002 17.9087 196.892C20.1103 195.043 21.5657 192.901 22.5768 190.574Z" fill="#FFF9C8"/>
</g>
<mask id="mask1_598_670" style="mask-type:luminance" maskUnits="userSpaceOnUse" x="166" y="130" width="52" height="74">
<path d="M218 130H166V204H218V130Z" fill="white"/>
</mask>
<g mask="url(#mask1_598_670)">
<path fill-rule="evenodd" clip-rule="evenodd" d="M172.752 162.526C175.116 161.356 177.604 159.803 179.523 157.553C181.802 154.881 182.729 151.44 183.352 147.818C184.151 143.164 184.47 138.207 185.439 133.546C185.798 131.815 186.488 131.161 186.784 130.87C187.533 130.137 188.29 129.941 189.002 130.014C189.846 130.099 191.005 130.542 191.768 132.505C191.876 132.786 192.018 133.214 192.113 133.801C192.182 134.231 192.227 135.575 192.3 136.129C192.484 137.494 192.637 138.86 192.781 140.232C193.261 144.801 193.537 148.682 195.052 152.879C197.108 158.577 199.169 162.064 201.963 163.608C204.664 165.101 207.895 164.82 212.022 163.649C212.415 163.517 212.803 163.404 213.188 163.312C215.007 162.871 216.747 164.528 217.104 167.043C217.462 169.557 216.305 172.006 214.502 172.559C214.126 172.674 213.755 172.783 213.388 172.883C207.81 174.799 201.354 181.636 197.602 187.623C196.445 189.469 194.752 194.629 193.025 197.922C191.75 200.35 190.318 201.951 189.115 202.517C188.309 202.898 187.63 202.839 187.068 202.647C186.253 202.368 185.576 201.755 185.057 200.78C184.774 200.246 184.512 199.532 184.387 198.619C184.327 198.18 184.321 197.064 184.322 196.558C183.97 194.878 183.539 193.238 183.225 191.543C182.476 187.498 181.007 184.937 179.262 181.555C177.63 178.389 175.877 176.4 173.307 174.812C172.973 174.699 170.276 173.782 169.323 173.256C167.931 172.485 167.268 171.193 167.028 170.498C166.618 169.317 166.576 168.286 166.658 167.426C166.779 166.157 167.189 165.071 167.918 164.194C168.369 163.649 169.043 163.119 169.945 162.861C170.642 162.659 172.492 162.543 172.752 162.526ZM188.577 155.934C188.702 156.32 188.835 156.709 188.976 157.101C191.988 165.446 195.355 170.106 199.449 172.366L199.586 172.44C196.848 175.261 194.369 178.413 192.474 181.436C191.694 182.68 190.661 185.266 189.546 187.917C188.532 183.344 186.874 180.112 184.789 176.068C183.197 172.981 181.528 170.658 179.477 168.765C181.068 167.632 182.586 166.304 183.909 164.754C186.11 162.173 187.566 159.182 188.577 155.934Z" fill="#FFF9C8"/>
</g>
<path fill-rule="evenodd" clip-rule="evenodd" d="M253.768 43.7259C253.024 37.6216 251.413 31.5773 249.809 25.7314C249.459 24.4739 248.168 23.7095 246.964 24.1109C245.724 24.4273 245.011 25.7273 245.325 26.8993C246.884 32.5635 248.467 38.4178 249.161 44.2421C249.304 45.4856 250.461 46.4069 251.738 46.2759C253.013 46.1453 253.909 44.9698 253.768 43.7259Z" fill="#FFF9C8" fill-opacity="0.59"/>
<path fill-rule="evenodd" clip-rule="evenodd" d="M282.415 51.2302C287.725 38.6943 291.418 25.5297 297.04 13.0642C297.581 11.9369 297.057 10.5514 295.898 10.0324C294.738 9.51369 293.35 9.99231 292.845 11.2049C287.196 23.6814 283.478 36.8567 278.141 49.4037C277.657 50.6078 278.214 51.9787 279.396 52.4882C280.542 52.9126 281.931 52.4344 282.415 51.2302Z" fill="#FFF9C8" fill-opacity="0.59"/>
<path fill-rule="evenodd" clip-rule="evenodd" d="M323.808 53.3265C318.777 55.7235 313.746 58.12 308.715 60.5174C307.538 61.0077 307.057 62.4116 307.612 63.5833C308.169 64.7546 309.526 65.1906 310.703 64.6999C315.743 62.2993 320.781 59.8996 325.819 57.4993C326.96 56.9236 327.436 55.5225 326.874 54.3537C326.347 53.2703 324.948 52.751 323.808 53.3265Z" fill="#FFF9C8" fill-opacity="0.59"/>
<path fill-rule="evenodd" clip-rule="evenodd" d="M320.825 174.021C301.822 180.322 280.272 193.597 266.087 211.251C256.479 223.214 250.239 237.183 250.255 252.326C250.258 253.63 251.318 254.684 252.622 254.683C253.932 254.689 254.984 253.631 254.98 252.326C254.959 238.265 260.843 225.332 269.77 214.227C283.393 197.276 304.076 184.549 322.316 178.519C323.553 178.1 324.225 176.763 323.818 175.528C323.397 174.29 322.06 173.615 320.825 174.021Z" fill="#FFF9C8"/>
</svg>
