<svg width="40" height="40" viewBox="0 0 40 40" fill="none" xmlns="http://www.w3.org/2000/svg">
<path fill-rule="evenodd" clip-rule="evenodd" d="M36.634 11.1275C36.3873 8.45851 34.6905 6.68985 32.0324 6.36808C31.33 6.28311 30.5946 6.29618 29.8942 6.39725C27.9369 6.68068 26.1203 7.37678 24.4621 8.46635C22.6541 9.65445 21.096 11.1224 19.6397 12.7143C19.1234 13.2786 18.7038 13.9772 17.7679 14.2907C17.1315 13.844 16.8665 13.2402 16.5495 12.6828C16.1306 11.9467 15.7705 11.1757 15.3222 10.4589C14.491 9.12895 13.5556 7.87611 12.24 6.97188C9.18475 4.87225 5.63568 5.82031 4.08678 9.17601C3.79078 9.81701 3.60451 10.5262 3.47474 11.2235C3.24738 12.4502 3.31581 13.6874 3.52731 14.9163C3.87301 16.9144 4.48918 18.8329 5.21838 20.7194C6.68204 24.5057 8.70541 27.998 10.8491 31.426C11.2981 32.1431 11.7908 32.8339 12.293 33.5151C12.8048 34.2092 13.0693 34.2386 13.9786 34.0213C14.5792 33.8775 15.055 33.5909 15.4489 33.1334C15.7456 32.7884 16.047 32.4467 16.3437 32.1013C18.7759 29.2686 21.5305 26.8056 24.677 24.7836C26.5933 23.5517 28.5124 22.3211 30.3943 21.0372C32.3406 19.7107 34.1403 18.219 35.3795 16.1582C36.3124 14.6065 36.8021 12.9435 36.634 11.1275ZM6.73625 8.99825C7.36368 8.27595 8.12804 7.87241 9.47988 8.18155C8.20108 9.49595 7.06168 10.5611 5.71171 11.7565C5.62394 10.4977 6.11248 9.71641 6.73625 8.99825ZM6.01164 15.3681C5.48134 14.5755 5.31508 13.7859 6.01878 13.0831C7.43674 11.6674 8.90961 10.306 10.3758 8.93855C10.6415 8.69118 10.9571 8.68615 11.1759 9.05451C10.5749 10.1309 7.45094 13.9604 6.01164 15.3681ZM6.78034 17.795C6.31111 17.7015 6.30904 17.3662 6.39198 17.055C6.45604 16.8166 6.60004 16.584 6.75921 16.3901C8.43858 14.3465 10.1266 12.3105 11.8199 10.2782C11.8941 10.1884 12.0397 10.1581 12.4447 9.94841C12.4809 10.3512 12.5928 10.625 12.5028 10.7862C12.2531 11.2341 11.9385 11.6502 11.6155 12.0517C10.1583 13.8617 8.69208 15.6646 7.22014 17.4629C7.10418 17.6048 6.91974 17.6916 6.78034 17.795ZM7.57244 18.6602C9.07354 16.8586 10.5381 15.0263 12.0188 13.2071C12.4212 12.7122 12.8291 12.2216 13.1789 11.7965C13.7462 11.8642 13.864 12.1435 13.8201 12.4981C13.7976 12.6826 13.7153 12.8746 13.6129 13.0321C11.8702 15.7078 9.83034 18.1535 7.73114 20.7974C7.04031 19.9224 7.01621 19.3285 7.57244 18.6602ZM8.87721 22.8893C8.18935 22.2967 8.13488 22.1745 8.42724 21.6968C8.62934 21.3666 8.86361 21.0556 9.09811 20.7469C10.7823 18.5359 12.4685 16.3258 14.1605 14.121C14.2317 14.0282 14.3692 13.9862 14.4788 13.9198C15.0188 13.9366 15.1503 14.35 15.0383 14.7172C14.9122 15.1327 14.6203 15.5105 14.3506 15.8674C12.6734 18.0837 10.983 20.2912 9.29175 22.4979C9.17715 22.6472 9.01548 22.7606 8.87721 22.8893ZM33.8298 14.5443C33.2514 15.6526 32.4678 16.5938 31.539 17.4386C29.5951 19.2068 27.3517 20.5466 25.1409 21.9183C21.3468 24.2723 17.9215 27.0435 14.9777 30.405C14.6777 30.7476 14.3596 31.0742 14.0333 31.3912C13.9483 31.4738 13.8004 31.4918 13.6222 31.5625C11.8937 29.3641 10.5341 26.9342 9.30991 24.3132C11.252 21.379 13.5154 18.6999 15.6848 15.8178C15.993 15.9806 16.2939 16.0831 16.5247 16.2712C17.3871 16.9737 18.2392 16.8265 19.0233 16.2062C19.7353 15.6428 20.3808 14.9937 21.0396 14.3658C22.17 13.2889 23.226 12.1229 24.4272 11.133C26.0022 9.83541 27.8093 8.91148 29.8487 8.57271C30.5451 8.45675 31.2869 8.42711 31.981 8.53025C33.426 8.74638 34.29 9.69348 34.4857 11.1413C34.6487 12.344 34.3846 13.48 33.8298 14.5443Z" fill="black"/>
</svg>
